<svg xmlns="http://www.w3.org/2000/svg" viewBox="0 0 488 488"><defs><style>.cls-1{fill:#f7931e;}.cls-2{fill:#fff;}.cls-3,.cls-4{fill:#603813;}.cls-4{stroke:#603813;stroke-miterlimit:10;stroke-width:2px;}</style></defs><g id="Calque_2" data-name="Calque 2"><g id="Calque_1-2" data-name="Calque 1"><rect class="cls-1" x="11" y="11" width="466" height="466" rx="231"/><rect class="cls-2" x="151.84" y="138.33" width="21.37" height="17.04" transform="translate(-36.34 55.03) rotate(-17.32)"/><rect class="cls-3" x="261.13" y="-4.25" width="7.62" height="86.92" transform="translate(121.88 -187.2) rotate(49.29)"/><rect class="cls-3" x="283.03" y="1.26" width="7.62" height="103.55" transform="translate(139.97 -199) rotate(49.29)"/><rect class="cls-2" x="269.78" y="-0.68" width="18.4" height="87.05" transform="translate(129.51 -196.58) rotate(49.29)"/><path class="cls-3" d="M208,242.07c1.32-2.49,2.28-4.38,3.31-6.23,16.72-30.11,42-48.75,75.7-55.48,28.18-5.63,55.33-2,80.87,11.34,24.53,12.82,41.6,32.12,49.07,59.16A89.55,89.55,0,0,1,420,282.21c-.52,6.34.08,12.67.59,19,1.37,17.1-.78,33.32-12,47.25-7.13,8.85-16,15.51-25.89,20.94a176.92,176.92,0,0,1-50.06,18.84,155.32,155.32,0,0,1-42,2.29c-32.31-2.25-62.76-11.42-92.1-24.72a5.74,5.74,0,0,0-4-.39,146.12,146.12,0,0,1-40.7,4.24c-10.74-.36-21.36-1.65-31.39-5.9-7.6-3.23-14-7.84-17.52-15.67-1.66-3.71-1.9-7.68-2.27-11.64-1-10.64-3.7-20.93-6.9-31.07a120.4,120.4,0,0,1-5.71-44.1,274.44,274.44,0,0,1,4.72-35.44c5-25.66,10.22-51.27,15.17-76.94q4.6-23.86,7.51-48c.84-7,4.74-11.79,10.19-15.59,7.75-5.4,16.48-8.7,25.41-11.51a318.24,318.24,0,0,1,55.52-12A196,196,0,0,1,233.26,60a15.15,15.15,0,0,1,12.32,6c4.09,5,6.11,11.11,7.8,17.24A143,143,0,0,1,258.71,124a31.65,31.65,0,0,1-.69,6.14c-1.95,8.84-8.33,14.54-17.69,16a3.35,3.35,0,0,0-2.46,1c-4.4,5.45-10.26,8-17.13,8.57a4.83,4.83,0,0,0-3,1.33,20.69,20.69,0,0,1-13.64,5.2,6.18,6.18,0,0,0-4,1.34,17.89,17.89,0,0,1-8.06,3.71c-1.88.35-2.38,1.4-2.61,3.15a59.42,59.42,0,0,0,4,29.68C198.67,213.67,204.11,227.23,208,242.07ZM226.4,96c.2,1.84.28,3.29.51,4.71,1.35,8.51,5,16.37,7.08,24.67a6.31,6.31,0,0,0,2.28,3.37c2.93,2.34,6,1.65,7.45-1.76a18.71,18.71,0,0,0,1.48-7.15c.14-7,.34-13.92-.48-20.86a74.45,74.45,0,0,0-4.63-19.35,12.14,12.14,0,0,0-.75-1.37c-1.68,1.55-1.64-.63-2.26-1.14A10.87,10.87,0,0,0,233.62,75a10.35,10.35,0,0,0-6.75.33c-.42.14-.9.39-1.3,0s-.16-.86,0-1.28c.78-2.47.75-2.47-1.93-2.2-7.46.73-14.91,1.47-22.31,2.66-17.47,2.81-34.7,6.58-51.39,12.57a65.26,65.26,0,0,0-15.45,7.48c-2.88,2-5.29,4.34-5.64,8.2s-.91,7.89-1.49,11.83c-3.75,25.57-8.68,50.92-13.86,76.24C109,212.8,104.06,234.66,102,257c-1.18,12.84-.63,25.5,2.86,38,3.89,13.9,8.58,27.66,9.42,42.21.31,5.47,3.43,8,7.92,9.74a32.75,32.75,0,0,0,4.84,1.43,106.9,106.9,0,0,0,28.07,1.53,161.9,161.9,0,0,0,33.92-5.27,5.38,5.38,0,0,1,4,.35c4.66,2.13,9.31,4.29,14.06,6.2,25.91,10.43,52.57,17.7,80.59,19.4a168.11,168.11,0,0,0,29.76-.85c12.72-1.48,24.8-5.31,36.61-10.06,13.12-5.28,25.7-11.5,36.25-21.2,12-11.07,16.69-24.86,15.41-40.94-.59-7.39-1.7-14.77-1.08-22.2a109.17,109.17,0,0,0,.33-13.53,61.8,61.8,0,0,0-6.9-27.1c-8.39-15.7-21.15-26.82-36.81-34.72-22.26-11.23-45.81-15-70.41-10.66-33.46,5.89-58.48,23.53-73.7,54.23-5.34,10.77-10.75,21.48-17.25,31.61-.52.8-.86,2.24-1.85,2.1s-.84-1.62-1-2.53a292.33,292.33,0,0,0-12-40.68c-3.93-10.37-8.7-20.41-12.07-31a69,69,0,0,1-3.25-22.36,120.48,120.48,0,0,1,3.05-23.16,3.06,3.06,0,0,0-.43-2.57A30.88,30.88,0,0,1,168,144.62c-.54-2.35-1-4.72-1.5-7.34a34.71,34.71,0,0,1-5.16,4.2c-4.7,2.7-8.69,1.39-10.76-3.62a36.29,36.29,0,0,1-2.25-11.19c0-.46-.19-1,.51-1.45.4,1.27.74,2.44,1.11,3.59a26.37,26.37,0,0,0,3.14,7.12c1.92,2.8,3.78,3,6.23.72a13.74,13.74,0,0,0,1.55-1.69,85.25,85.25,0,0,0,7.69-12.76,3.86,3.86,0,0,0,.12-3.12c-.82-2.47-1.66-4.93-2.46-7.4-.15-.47-.62-1,0-1.46s1,0,1.51.19a7.93,7.93,0,0,1,2.59,2.23,42.12,42.12,0,0,1,3.7,5.79c2.31,4,3.26,8.58,5.57,12.58.3.52,1.23,1.07.52,1.74-.51.49-1.31.1-2-.13-1.82-.67-3-2.26-4.51-3.7.54,7.91,1.79,13.38,3.86,17.21,2.69,5,5.84,6.1,11,4,4.54-1.85,5.74-4.28,5.11-9.68a129.8,129.8,0,0,1-1.25-21,9.25,9.25,0,0,1,1-4.31,80.22,80.22,0,0,0,2.48,12.31c1.63,5.26,3.1,10.56,4.76,15.81.49,1.56,1.46,3,3.34,3a5.14,5.14,0,0,0,4.58-2.6,8,8,0,0,0,.89-2.58c.7-3.22,0-6.4-.26-9.58-.65-7.15-2-14.25-1.62-21.48a9,9,0,0,1,.92-4.31c.37,2.53.63,4.72,1,6.89,1.2,6.65,4,12.85,5.55,19.39a9,9,0,0,0,8.63,7c2.38.09,3.78-1,4.49-3.41,1-3.51.23-7-.18-10.47-1-8.34-2.87-16.59-2.53-25.06C225.49,98.8,225.31,97.47,226.4,96Z"/><path class="cls-3" d="M219.79,86.48a3.53,3.53,0,0,1-.67-.59c-2.62-3.79-6.28-4.16-10.38-3.2-.65.15-1.5,1-2,0-.4-.72.18-1.48.63-2.09a8.86,8.86,0,0,1,7.41-3.91C219.16,76.7,221.93,82.09,219.79,86.48Z"/><path class="cls-3" d="M188,100.92a12.16,12.16,0,0,1,0,1.6c-.11,1-.61,1.33-1.27.43-2.91-3.93-6.72-4.33-11-2.92-.43.14-.9.38-1.29,0s-.12-1,.07-1.46c1.36-3.3,6.51-5.59,9.87-4.41C186.73,95,188,97.4,188,100.92Z"/><path class="cls-3" d="M205.43,92.3c0,.46,0,.92,0,1.37s-.07.8-.48,1-.7-.2-.9-.49c-2.83-3.9-6.64-4.18-10.85-2.94-.5.15-1.06.54-1.48,0s0-1,.19-1.5c1.36-3,5.79-5.22,9-4.52C203.79,85.85,205.44,88.43,205.43,92.3Z"/><rect class="cls-2" x="73.23" y="113.06" width="18.4" height="198.39" transform="translate(189.57 11.34) rotate(49.29)"/><rect class="cls-3" x="75.31" y="102.85" width="7.62" height="193.26" transform="translate(178.74 9.4) rotate(49.29)"/><rect class="cls-3" x="88.85" y="111.79" width="7.62" height="217.46" transform="translate(199.39 6.46) rotate(49.29)"/><path class="cls-2" d="M246,11c127.58,0,231,103.42,231,231v4c0,127.58-103.42,231-231,231h-4C114.42,477,11,373.58,11,246v-4C11,114.42,114.42,11,242,11h4m0-11h-4A241.8,241.8,0,0,0,0,242v4A241.8,241.8,0,0,0,242,488h4A241.8,241.8,0,0,0,488,246v-4A241.8,241.8,0,0,0,246,0Z"/><circle class="cls-4" cx="278.5" cy="249.5" r="14.5"/><circle class="cls-4" cx="341.5" cy="249.5" r="14.5"/><path class="cls-3" d="M235.32,317.88c3.93,1.86,7.47,3.65,11.1,5.22a117.85,117.85,0,0,0,41.11,9.5c25.35,1.33,49.66-2.84,72.84-13.29,9.8-4.42,18.61-10.26,25.81-18.36.35-.39.74-.77,1.13-1.13.09-.08.28-.06.69-.14a22.49,22.49,0,0,1-1.57,6.88c-3.67,9.81-10.05,17.62-18.08,24.15-13.77,11.19-29.7,17.47-47.07,20.31a98.3,98.3,0,0,1-50.61-4.52c-13.68-5-25.23-13-33.62-25.17A8.76,8.76,0,0,1,235.32,317.88Z"/><path class="cls-2" d="M246,11c127.58,0,231,103.42,231,231v4c0,127.58-103.42,231-231,231h-4C114.42,477,11,373.58,11,246v-4C11,114.42,114.42,11,242,11h4m0-11h-4A241.8,241.8,0,0,0,0,242v4A241.8,241.8,0,0,0,242,488h4A241.8,241.8,0,0,0,488,246v-4A241.8,241.8,0,0,0,246,0Z"/></g></g></svg>